Patient4_TMGait_0pt7_01_left_07_EMG.mot
version=1
nRows=37
nColumns=33
inDegrees=no
endheader
time	1LAddLong	2LGlutMax	3LGlutMed	4LIliopsoas	5LSemiMemb	6LBicFemLong	7LRecFem	8LVastMed	9LVastLat	10LGasMed	11LTibAnt	12lTibPost	13LPeroneusLong	14LSol	15LExtDigLong	16LFlexDigLong	17RAddLong	18RGlutMax	19RGlutMed	20RIliopsoas	21RSemiMemb	22RBicFemLong	23RRecFem	24RVastMed	25RVastLat	26RGasMed	27RTibAnt	28RTibPost	29RPeroneusLong	30RSol	31RExtDigLong	32RFlexDigLong
8.865	0.016632	0.00351	0.17654	0.017242	0.047607	-0.21866	-0.27557	-0.003815	-0.003967	0.10284	0.000305	-0.103	-0.011597	0.18249	0.032959	0.13825	0.001678	0.062866	-0.11902	-0.047302	0.19898	-0.010834	0.068359	0.008545	0.093384	-0.001068	-0.035553	-0.007629	0.34012	-0.024567	-0.002441	-0.01709
8.866	0.014954	-0.005798	0.18249	0.003815	0.039673	-0.19989	-0.27054	-0.006714	-0.006104	0.54825	-0.007935	-0.24139	0.060425	0.085754	0.020294	-0.049286	-0.036774	0.048981	-0.12375	-0.076904	-0.005798	0.26398	-0.039825	0.20432	0.13886	-0.007782	0.028992	-0.006409	-0.007324	-0.08255	0.003204	-0.014191
8.867	0.013428	-0.002289	0.1944	0.019226	0.036469	-0.13397	-0.26855	0.002747	-0.010223	0.56686	0.006104	-0.087433	0.021057	-0.14801	-0.021057	0.013885	-0.012512	0.043945	-0.21881	-0.098572	-0.034332	0.31021	-0.14511	0.24551	0.21591	-0.011444	0.085907	-0.010986	0.088043	-0.060883	-0.002289	-0.015106
8.868	0.005646	-0.009155	0.18936	-0.002747	0.036469	-0.056	-0.25177	0.005035	-0.019226	0.73807	0.016785	-0.085144	-0.02182	0.15167	-0.063324	0.20752	-0.013733	0.049438	-0.29785	-0.177	0.16251	0.28458	-0.1857	0.014343	0.4921	-0.014343	0.15427	-0.003815	0.061493	-0.01358	0.001373	-0.010071
8.869	0.009155	-0.025177	0.15839	-0.001831	0.016632	-0.001984	-0.23422	0.00473	-0.006714	0.99472	0.015869	-0.14816	-0.042572	0.09491	-0.06958	-0.22964	-0.031128	0.079803	-0.28915	-0.10254	0.25101	0.34973	-0.17334	-0.27512	0.68405	-0.009613	0.13748	-0.004425	-0.014648	-0.03067	0.000305	-0.007324
8.87	0.013123	-0.023804	0.17929	-0.002899	-0.01236	-0.081787	-0.27115	-0.007324	0.006866	1.23	0.000458	0.006409	-0.17181	-0.11902	-0.076141	0.14221	-0.06134	0.033875	-0.32532	-0.033264	0.25635	0.37201	-0.17288	-0.36697	0.56397	-0.010376	0.10407	-0.010529	-0.018616	-0.077057	-0.002747	-0.014954
8.871	0.020599	-0.083771	0.21011	0.011597	-0.014496	-0.091095	-0.23758	0.000763	-0.019684	0.61157	0.006256	0.074005	-0.015411	-0.57556	-0.044708	0.28	-0.049438	-0.071564	-0.31036	0.037842	0.27283	0.41046	-0.17395	-0.34347	0.28412	-0.012665	0.10834	-0.000153	-0.01297	-0.05249	-0.003052	-0.007629
8.872	-0.033417	-0.079498	0.25146	-0.010681	-0.009308	0.006409	-0.22553	0.003357	-0.023346	-0.16876	-0.014038	0.18631	0.19241	-0.68893	-0.022583	-0.15045	-0.020142	-0.20615	-0.23636	0.13763	0.13168	0.40314	-0.061798	-0.28732	-0.003662	-0.010681	0.035858	-0.006866	0.025635	-0.080719	-0.003357	-0.013123
8.873	0.04303	-0.094452	0.22064	-0.003052	0.00412	0.079803	-0.1973	0.004578	-0.018158	-0.20859	-0.00885	0.092316	0.27344	-0.27618	-0.011749	-1.026	-0.006561	-0.26749	-0.27527	0.13977	0.14008	0.2504	0.03891	-0.21133	-0.20508	-0.002441	-0.093384	-0.001831	0.13596	-0.11597	-0.001984	-0.010681
8.874	-0.052795	-0.11414	0.2066	0.002136	0.015259	0.015564	-0.18509	0.003052	-0.028687	-0.62668	0.00885	0.001831	0.24567	-0.094299	-0.002289	0.47043	0.037537	-0.22797	-0.33569	0.062408	0.2655	0.018768	0.12222	-0.12314	-0.29434	-0.003052	-0.063782	-0.001678	0.19592	-0.14404	-0.003662	-0.007477
8.875	0.053711	-0.13351	0.21683	-0.003662	0.014648	0.006561	-0.16815	0.004272	-0.028534	-1.2503	0.020447	0.005341	0.091248	0.13214	0.01358	0.44571	0.008698	-0.00885	-0.33341	0.024719	0.25482	-0.2565	0.13275	0.061951	-0.29541	-0.002747	-0.005798	-0.002441	0.087891	-0.14023	0	-0.015564
8.876	-0.000305	-0.1384	0.20996	0.007172	0.004883	-0.012665	-0.17807	0.007629	-0.010223	-1.0199	0.029602	0.23163	-0.033569	-0.00351	0.016479	0.54871	-0.038757	0.18921	-0.1976	-0.022888	0.06424	-0.48752	0.024414	0.18768	-0.31128	-0.01358	-0.076141	0.001678	0.14481	-0.10666	0.003204	-0.023346
8.877	0.014801	-0.11078	0.23758	-0.005493	0.023041	-0.074768	-0.19638	-0.006866	-0.000916	-0.50797	0.023651	-0.11337	-0.19409	-0.16663	0.006714	0.017242	-0.014801	0.32181	-0.12543	0.009308	-0.26642	-0.5246	-0.030975	0.41565	-0.25421	-0.009155	0.00061	-0.005341	0.30304	-0.057831	0.009003	-0.016327
8.878	0.022736	-0.080261	0.23544	0.005493	0.025024	-0.14145	-0.22369	0.001373	0.018311	-0.13931	0.029144	-0.049591	-0.26413	-0.18829	-0.016327	-0.71472	0.060425	0.29694	0.13458	0.005646	-0.074158	-0.63309	0.18127	0.46432	-0.17059	-0.007019	0.12451	-0.003967	0.34485	0	-0.001526	-0.018311
8.879	0.02594	-0.080414	0.25742	0.014801	0.031586	-0.1181	-0.20294	0.013733	0.009308	-0.33142	0.016785	0.17517	-0.18967	0.16586	0.002441	0.45731	0.06897	0.21225	0.14557	-0.050049	0.015869	-0.51498	0.27664	0.19104	-0.1149	-0.009155	0.15015	-0.000458	0.058746	0.031586	-0.003052	-0.019226
8.88	0.002594	-0.089111	0.25085	0.004425	0.03479	-0.003052	-0.17853	0.001526	0.015869	-0.45624	0.002136	0.21286	-0.07782	0.42114	-0.027466	-0.00946	0.049438	0.24994	0.19531	-0.09613	-0.040588	-0.10803	0.23285	0.24872	-0.007172	-0.013275	0.22964	-0.001221	-0.68329	-0.034485	-0.000763	-0.018921
8.881	0.017853	-0.085602	0.25406	-0.007477	0.016785	-0.038605	-0.19073	0.001984	0.028534	-0.24811	-0.000916	-0.31082	0.024567	0.76523	-0.066223	-0.58853	-0.000153	0.21103	-0.24429	0.005188	-0.031281	0.14114	0.10925	0.21668	0.10666	-0.017395	0.17624	-0.001831	-1.3841	-0.088959	-0.009918	-0.018005
8.882	0.02655	-0.070801	0.23377	0.005646	0.009155	-0.10773	-0.19379	-0.007629	0.033722	-0.17044	0.006256	-0.058746	0.08255	1.0069	-0.051727	-0.046234	-0.037384	0.13733	-0.11063	0.067749	0.057678	0.089569	0.019531	0.1001	0.13916	-0.014038	0.13168	-0.004425	-0.64529	-0.083771	-0.003204	-0.017395
8.883	0.013733	-0.061951	0.22842	0.007629	0.008392	-0.09964	-0.16998	0.002899	0.023499	-0.20721	0.005035	0.019989	0.10178	0.61096	-0.042725	0.13916	-0.011902	-0.077209	0.12512	0.03891	0.14862	0.028992	0.10162	0.015869	0.13901	-0.015869	0.081177	-0.00824	-0.096283	-0.10529	-0.001373	-0.019836
8.884	0.017395	-0.087891	0.2301	0.016479	-0.00824	-0.08316	-0.18539	0.004578	0.01236	-0.2301	0.014191	-0.068207	0.099792	-0.065002	0.004578	0.28153	0.050049	-0.10757	0.16678	-0.014496	0.10376	-0.084991	0.19058	-0.10086	0.017853	0.007477	0.072327	-0.006256	1.0307	-0.10376	-0.007782	-0.007935
8.885	0.019226	-0.057678	0.20294	0.012054	-0.011902	0.030212	-0.17548	-0.001526	0.002136	-0.1918	0.015717	0.32349	0.064697	-0.28488	0.063019	0.043793	0.04837	-0.003357	0.070801	-0.05249	0.089111	-0.19791	0.15121	-0.11032	-0.021973	0.009766	0.13519	-0.02182	0.31845	-0.010681	-0.003662	-0.01358
8.886	0.019226	-0.067596	0.20035	0.016022	-0.007782	0.057983	-0.19104	-0.005646	0.012817	-0.32135	0.005188	0.29739	0.067749	0.083466	0.11719	-0.001373	0.003204	0.20996	-0.031281	-0.060883	0.041199	-0.42511	0.12344	0.051727	0.60944	-0.002289	0.18417	-0.008698	-0.03952	-0.032959	-0.002441	-0.009918
8.887	0.026855	-0.078583	0.20538	0	0.016174	0.066223	-0.21347	-0.007477	0.029297	-0.44067	-0.003967	-0.44952	0.12497	0.46829	0.081635	-0.057983	-0.026245	0.30502	-0.094604	-0.066223	0.055084	-0.35614	0.042725	0.05722	0.81802	0.00061	0.11047	0.016785	0.36499	-0.065918	-0.004578	-0.016022
8.888	0.030518	-0.057068	0.2182	0.006866	0.049438	0.059509	-0.15778	-0.004578	0.012665	-0.26901	-0.011139	-0.22827	0.067444	1.2723	0.058746	-0.036774	-0.04776	0.23468	-0.098267	-0.023193	-0.1535	-0.31616	-0.30548	-0.017395	0.58502	-0.004883	0.14603	0.007477	0.22385	-0.077057	-0.003204	-0.013123
8.889	0.026398	-0.06073	0.21439	0.008698	0.034485	-0.013885	-0.13473	-0.000458	-0.007629	0.35309	-0.011749	0.037384	0.023041	1.2361	0.039215	-0.19638	0.036163	0.17059	-0.19882	-0.032959	-0.23285	-0.3627	-0.29724	-0.16037	0.19486	0.002136	0.088043	-0.003357	0.13779	-0.10117	-0.001221	0.000458
8.89	0.016937	-0.031128	0.20386	-0.001068	0.02182	-0.01236	-0.10651	0.00061	-0.008392	0.31158	-0.010681	0.069122	0.16235	0.55267	-0.000153	-0.04837	0.12177	0.14358	-0.26337	-0.098267	-0.24048	-0.289	-0.23361	-0.24796	-0.30228	-0.00061	-0.10788	-0.004425	0.073853	-0.12146	-0.002441	-0.010529
8.891	0.020752	-0.001831	0.19836	-0.000916	-0.011139	0.029907	-0.10941	0.002747	-0.006409	-0.001221	-0.004578	0.20706	0.24704	0.007324	-0.033875	0.24597	0.12024	0.048065	-0.36057	-0.052185	-0.16556	-0.16769	-0.1709	-0.2214	-0.40085	-0.012207	-0.057983	-0.007019	0.21439	-0.028534	-0.004272	-0.011292
8.892	0.016785	-0.03006	0.20538	-0.010529	-0.024872	0.066376	-0.096741	0.002441	-0.005341	0.11261	0.009003	0.05127	0.22201	-0.91888	-0.06073	-0.094299	0.13977	-0.040588	-0.36423	0.030212	-0.38483	-0.027008	0.16434	-0.36819	-0.76035	-0.014038	-0.029907	-0.003815	0.98602	-0.011444	-0.001678	-0.006714
8.893	0.017548	0.032959	0.19913	-0.003204	-0.003967	0.040283	-0.078278	0.001526	-0.015106	0.53177	0.005493	-0.025482	0.20783	-1.32	-0.061188	-0.033875	0.15839	0.027924	-0.17364	0.13184	-0.58823	0.08667	0.26398	-0.58502	-0.74219	-0.022583	-0.032806	-0.003967	0.50858	-0.076141	-0.000305	-0.016785
8.894	0.014954	0.11078	0.20233	0.009155	0.020294	-0.041809	-0.068207	0.001984	-0.016174	0.68939	0.02121	-0.17319	0.096436	-1.0446	-0.079193	-0.10712	0.13397	0.11841	-0.14984	0.23865	-0.63171	0.16144	0.33417	-0.47867	-0.42206	-0.022583	-0.063019	-0.003204	-0.010834	-0.063324	-0.001678	-0.008545
8.895	0.026245	0.12207	0.21225	0.006256	0.010071	-0.10727	-0.086212	0.003967	-0.02182	0.88333	0.029449	-0.4921	-0.036469	-0.62515	-0.097961	-0.023956	0.050964	0.039825	-0.27542	0.24765	-0.40466	0.81528	0.14557	-0.18601	-0.11887	-0.021667	-0.11139	-0.002747	-0.63858	-0.057831	0.00412	-0.007629
8.896	0.019379	0.13641	0.18402	0.007782	0.036316	-0.12711	-0.038452	0.004272	-0.028076	0.88333	0.018311	-0.16525	-0.060883	-0.56305	-0.10483	-0.16647	-0.066071	-0.037537	-0.36728	0.11856	0.67078	1.0988	-0.05127	0.4155	0.14542	-0.015717	-0.053253	0.00473	-0.28473	-0.079956	0.000305	-0.012817
8.897	0.02182	0.1181	0.19867	-0.000916	0.042419	-0.12909	-0.03952	-0.001373	-0.042877	0.0177	0.000763	-0.050507	0.02655	-0.27542	-0.024567	0.37201	-0.1088	-0.11169	-0.42938	0.055542	0.82291	0.54092	-0.091705	0.354	0.25742	0.000763	0.026398	-0.005035	-0.13443	-0.00885	-0.001984	-0.0177
8.898	0.018005	0.097656	0.2034	0.013733	0.006561	-0.039215	-0.046387	0.000153	-0.020447	0.042877	0.005798	-0.051727	0.029755	-0.099335	0.015717	0.43472	-0.094452	-0.16205	-0.31662	0.016327	0.51453	0.011597	-0.001984	-0.19486	0.3656	0.005188	0.014954	-0.005798	-0.19577	0.11124	-0.002441	-0.018921
8.899	0.015106	0.099792	0.21423	-0.000916	-0.018005	-0.015259	-0.075226	-0.000458	-0.021057	0.11536	0.008392	-0.085144	0.000305	0.003204	0.010376	-0.024109	-0.058899	-0.16342	-0.33768	-0.007324	0.32135	-0.078735	-0.007629	-0.37827	0.5072	0.005188	-0.032349	0.001373	-0.27939	0.023804	-0.001068	-0.016937
8.9	0.018616	0.11536	0.22797	0.002136	-0.033264	0.046997	-0.047913	0.005493	-0.026245	-0.015411	0.010223	-0.079041	-0.015869	-0.1236	0.007782	-0.16907	-0.050812	-0.11658	-0.49942	-0.022125	0.19424	-0.19745	-0.037537	-0.51468	0.55039	-0.002747	-0.041809	0.001221	-0.069122	-0.047913	-0.004272	-0.014496
8.901	0.015106	0.12299	0.2887	-0.009766	0.050201	0.07843	-0.059814	-0.000916	-0.021667	-0.48614	0.007477	-0.06073	-0.029907	-0.12741	0.007019	-0.072479	-0.073547	-0.054169	-0.42893	-0.014038	-0.006409	-0.41351	-0.099792	-0.64163	0.38574	-0.002747	-0.05249	-0.003357	0.3392	-0.036621	-0.004578	-0.013733
